<svg width="55" height="44" viewBox="0 0 55 44" fill="none" xmlns="http://www.w3.org/2000/svg">
<path id="&#226;&#128;&#156; copy" d="M0.6 44V29.8C0.6 24.3333 1.46667 19.2667 3.2 14.6C5.06667 9.93333 8.2 5.33333 12.6 0.799995L20.4 6.59999C17.4667 9.79999 15.3333 12.8 14 15.6C12.6667 18.2667 11.8667 20.9333 11.6 23.6H21V44H0.6ZM33.8 44V29.8C33.8 24.3333 34.6667 19.2667 36.4 14.6C38.2667 9.93333 41.4 5.33333 45.8 0.799995L53.6 6.59999C50.6667 9.79999 48.5333 12.8 47.2 15.6C45.8667 18.2667 45.0667 20.9333 44.8 23.6H54.2V44H33.8Z" fill="#62E0D9"/>
</svg>
