<svg width="92" height="65" fill="none" xmlns="http://www.w3.org/2000/svg"><path d="M86.357 7.452l.702.02-.702-.02zM85.085 60.49l-.504.49.504-.49zm-.199-.51l.702.02-.702-.02zm1.426-.747l-.702-.02a.703.703 0 00.829.71l-.127-.69zM87.74 8.27l.197-.674a.702.702 0 00-.899.655l.702.02zM61.475 1.61l.584.39-.584-.39zm-5.328 7.973v.703a.703.703 0 00.584-.312l-.584-.39zM82.17 59.298V60a.702.702 0 00.494-1.202l-.494.5zM62.434 2.702V2a.703.703 0 00-.584.312l.584.39zm-5.328 7.974l-.584-.39.584.39zm29.953-4.61c-.76 0-1.383.606-1.404 1.366l1.404.04V6.067zm4.346 4.17c0-2.385-2.032-4.17-4.346-4.17v1.406c1.626 0 2.941 1.24 2.941 2.764h1.405zm0 45.617V10.236H90v45.617h1.405zm-5.817 5.552c3.128 0 5.817-2.403 5.817-5.552H90C90 58.142 88.027 60 85.588 60v1.405zm-1.007-.426c.264.272.628.426 1.007.426V60l-1.007.98zm-.397-1.018c-.01.379.133.746.397 1.018L85.588 60l-1.404-.04zm1.47-52.529l-1.47 52.529 1.404.039 1.47-52.528-1.404-.04zm1.36 51.82L88.442 8.29l-1.404-.04-1.427 50.963 1.405.04zm1.581-3.399c0 1.267-.98 2.428-2.409 2.688l.253 1.383c2.027-.37 3.561-2.057 3.561-4.071h-1.405zm0-45.617v45.617H90V10.236h-1.405zm-1.053-1.292c.654.192 1.053.743 1.053 1.292H90c0-1.234-.871-2.291-2.064-2.64l-.394 1.348zM62.06.595c-.47 0-.908.234-1.168.624L62.059 2V.595zm16.609 0h-16.61V2h16.61V.595zm4.173 4.167A4.171 4.171 0 0078.668.595V2a2.766 2.766 0 012.768 2.762h1.405zm0 51.095V4.762h-1.405v51.095h1.405zm2.747 2.738a2.742 2.742 0 01-2.747-2.738h-1.405A4.147 4.147 0 0085.588 60v-1.405zM86.993 60c0-.776-.629-1.405-1.405-1.405V60h1.405zm-1.405 1.405c.776 0 1.405-.63 1.405-1.405h-1.405v1.405zm-63.668 0h63.668V60H21.92v1.405zm-8.325-8.31c0 4.592 3.73 8.31 8.325 8.31V60C18.097 60 15 56.908 15 53.095h-1.405zm0-40.047v40.047H15V13.048h-1.405zm4.173-4.167a4.17 4.17 0 00-4.173 4.167H15a2.766 2.766 0 012.768-2.762V8.88zm38.379 0H17.768v1.405h38.379V8.88zm4.744-7.662l-5.328 7.974 1.168.78L62.06 2l-1.168-.78zm19.14 54.638c0 1.541.63 2.936 1.644 3.94l.989-.999a4.123 4.123 0 01-1.228-2.94h-1.405zm0-51.095v51.095h1.405V4.762h-1.405zm-1.363-1.357c.755 0 1.363.611 1.363 1.357h1.405A2.766 2.766 0 0078.668 2v1.405zm-16.234 0h16.234V2H62.434v1.405zm-4.743 7.661l5.327-7.973-1.168-.78-5.328 7.973 1.169.78zm-1.169.625c.47 0 .908-.235 1.169-.625l-1.169-.78v1.405zm-38.754 0h38.755v-1.405H17.767v1.405zm-1.363 1.357c0-.746.608-1.357 1.363-1.357v-1.405A2.766 2.766 0 0015 13.048h1.405zm0 40.047V13.048H15v40.047h1.405zm5.515 5.5c-3.05 0-5.515-2.466-5.515-5.5H15C15 56.908 18.098 60 21.92 60v-1.405zm60.25 0H21.92V60h60.25v-1.405z" fill="#62E0D9"/><path fill-rule="evenodd" clip-rule="evenodd" d="M41.28 28.561v3.201c0 1.061.841 1.92 1.88 1.92h3.13m2.505 0v-.219c0-.679-.264-1.33-.734-1.811l-4.794-4.902a2.48 2.48 0 00-1.772-.75h-13.99C26.122 26 25 27.147 25 28.561v26.89c0 1.414 1.122 2.56 2.505 2.56H46.29c1.383 0 2.505-1.146 2.505-2.56v-8.963" fill="#62E0D9"/><path d="M45.95 37.884l-.286.28.287-.28zm3.758 3.841l-.287.28.287-.28zm0 .562l-.287-.281.287.28zM37.81 54.45l.287.28-.287-.28zm-4.33-4.403l-.287-.28.287.28zm11.897-12.164l.287.28-.287-.28zm-11.21 15.885h-.4c0 .222.18.401.4.401v-.4zm0-3.276l-.286-.281a.401.401 0 00-.115.28h.402zm3.188 3.276v.401a.402.402 0 00.287-.12l-.287-.28zm11.504-11.763l.287.28a.401.401 0 000-.56l-.287.28zm-3.195-3.267l.287-.281a.401.401 0 00-.574 0l.287.28zm4.272-2.213l.287-.28-.287.28zm-3.231 0l.287.28-.287-.28zm4.33 1.125l-.286.28.287-.28zm0 3.278l-.286-.281.287.28zm-1.327 1.358l-.287-.281.287.28zm-.574 0l.287-.281-.287.28zm-3.757-3.842l.287-.28-.287.28zm0-.561l-.287-.28.287.28zm1.902-.797l.287.28-.287-.28zm2.083 0l-.287.28.287-.28zm-3.137 1.077l-.287-.28a.401.401 0 000 .561l.287-.28zm3.196 3.268l-.287.28a.402.402 0 00.574 0l-.287-.28zm1.041-1.065l.287.281-.287-.28zm0-2.155l.287-.28-.287.28zm-4.224-.609a.802.802 0 00-.574-.241v.802l.574-.56zm3.757 3.842l-3.757-3.842-.574.561 3.757 3.842.574-.561zm0 1.122a.803.803 0 000-1.122l-.574.56.574.562zM38.097 54.732l11.898-12.165-.574-.561L37.523 54.17l.574.562zm-.574.241a.803.803 0 00.574-.241l-.574-.562v.803zm-3.757 0h3.758v-.803h-3.758v.803zm-.802-.803c0 .444.36.803.802.803v-.803h-.802zm0-3.841v3.841h.802V50.33h-.802zm.229-.561a.803.803 0 00-.23.561h.803l-.573-.561zM45.09 37.603L33.192 49.768l.574.561 11.898-12.165-.574-.56zm.574-.241a.803.803 0 00-.574.241l.574.561v-.802zM34.569 53.769v-3.276h-.803v3.276h.803zm2.786-.401h-3.187v.802h3.187v-.802zm11.217-11.643L37.068 53.488l.574.562 11.504-11.763-.574-.562zm-3.195-2.706l3.195 3.268.574-.562-3.195-3.267-.574.561zM34.455 50.773L45.95 39.02l-.574-.561L33.88 50.212l.574.561zm15.768-14.528a2.652 2.652 0 00-3.805 0l.574.562a1.85 1.85 0 012.657 0l.574-.562zm1.1 1.125l-1.1-1.125-.574.562 1.1 1.124.574-.56zm0 3.84a2.754 2.754 0 000-3.84l-.574.561c.734.75.734 1.967 0 2.717l.574.561zm-1.328 1.357l1.328-1.358-.574-.561-1.328 1.358.574.561zm-.574.242a.802.802 0 00.574-.242l-.574-.561v.803zm-.574-.242a.802.802 0 00.574.242v-.803l-.574.561zm-3.757-3.841l3.757 3.841.574-.561-3.757-3.842-.574.562zm0-1.123a.803.803 0 000 1.123l.574-.562-.574-.56zm1.328-1.358l-1.328 1.358.574.561 1.328-1.358-.574-.56zm1.148 1.123a1.047 1.047 0 011.509 0l.574-.562a1.85 1.85 0 00-2.657 0l.574.562zm-1.054 1.077l1.054-1.077-.574-.562-1.054 1.078.574.561zm3.196 2.706l-3.196-3.267-.574.561 3.196 3.267.574-.56zm.467-1.064l-1.041 1.064.574.561 1.04-1.064-.573-.561zm0-1.594a1.148 1.148 0 010 1.594l.574.561a1.951 1.951 0 000-2.717l-.574.562zm-1.1-1.125l1.1 1.125.574-.562-1.1-1.124-.574.56z" fill="#fff"/><path d="M30.01 38.002a.803.803 0 00-.803.803h.802v-.803zm12.523 0H30.009v.803h12.524v-.803zm.803.803a.803.803 0 00-.803-.803v.803h.803zm-.803.803c.443 0 .803-.36.803-.803h-.803v.803zm-12.524 0h12.524v-.803H30.009v.803zm-.802-.803c0 .443.359.803.802.803v-.803h-.802zm.802 3.038a.803.803 0 00-.802.803h.802v-.803zm11.272 0H30.009v.803h11.272v-.803zm.802.803a.803.803 0 00-.802-.803v.803h.802zm-.802.803c.443 0 .802-.36.802-.803h-.802v.803zm-11.272 0h11.272v-.803H30.009v.803zm-.802-.803c0 .444.359.803.802.803v-.803h-.802zm.802 3.039a.803.803 0 00-.802.803h.802v-.803zm7.514 0H30.01v.803h7.514v-.803zm.803.803a.803.803 0 00-.803-.803v.803h.803zm-.803.803c.444 0 .803-.36.803-.803h-.803v.803zm-7.514 0h7.514v-.803H30.01v.803zm-.802-.803c0 .443.359.803.802.803v-.803h-.802z" fill="#fff"/><g><path fill-rule="evenodd" clip-rule="evenodd" d="M32.367 60.432c0 1.972-1.61 3.572-3.596 3.572H3.595c-1.985 0-3.596-1.6-3.596-3.572v-17.86C0 40.6 1.61 39 3.596 39H28.77c1.986 0 3.597 1.6 3.597 3.572v17.86zM10.789 45.55a2.987 2.987 0 01-2.997 2.976 2.987 2.987 0 01-2.997-2.976 2.987 2.987 0 012.997-2.977 2.987 2.987 0 012.997 2.977z" fill="#62E0D9"/><path d="M26.786 59.656L19.737 52.2 16.8 55.307l-4.112-4.349-8.224 8.698" stroke="#fff" stroke-width=".65" stroke-linecap="round" stroke-linejoin="round"/></g></svg>