<svg width="86" height="72" fill="none" xmlns="http://www.w3.org/2000/svg"><path d="M60.635 7.7l.46-.46-.46.46zm-.918.001l.46.46-.46-.46zm5.228 4.3l.46-.46-.46.46zm.191.46h.65-.65zm-.19.46l-.46-.46.46.46zm-29.45 29.4l-.46-.46.46.46zm-5.227 0l.46-.46-.46.46zm0 0l.459-.46-.46.46zm-13.08-13.057l-.46.46.46-.46zm0-.92l-.46-.46.46.46zm4.308-4.3l-.46-.46.46.46zm.918 0l.46-.46-.46.46zM32.881 34.49l-.46.46a.65.65 0 00.92 0l-.46-.46zm.46 1.379l.459.46-.46-.46zM60.175 9.08l.46-.46a.65.65 0 00-.919 0l.46.46zM32.422 35.87l-.46.46.46-.46zM21.956 25.422l.46-.46a.65.65 0 00-.92 0l.46.46zm-3.388 3.382l-.459-.46a.65.65 0 000 .92l.46-.46zM31.188 41.4l-.46.46v.001l.46-.46zm0 .001l.46-.46h-.001l-.459.46zm3.389 0l.459.46-.46-.46zm28.989-28.94l.46.46a.65.65 0 00-.001-.92l-.46.46zm-7.053-.57l-.478.442.478-.441zm.04.05l.518-.394-.518.393zm3.696 4.875l-.518.393.518-.393zm.036.053l-.554.34.554-.34zm-1.09.707l.553-.34a.655.655 0 00-.036-.052l-.518.392zm-3.659-4.825l.518-.393a.633.633 0 00-.04-.049l-.478.442zm-3.354 3.427l-.481.437.481-.437zm.05.062l-.531.375.53-.375zm3.566 5.044l-.53.376.53-.376zm.042.068l-.573.307.573-.307zm-1.127.65l.573-.307a.644.644 0 00-.042-.068l-.53.375zm-3.52-4.98l.53-.375a.653.653 0 00-.05-.062l-.48.438zm-15.996-4.685a1.3 1.3 0 00-1.3-1.3v1.3h1.3zm0 2.027v-2.027h-1.3v2.027h1.3zm-1.3 1.3a1.3 1.3 0 001.3-1.3h-1.3v1.3zm-1.3-1.3a1.3 1.3 0 001.3 1.3v-1.3h-1.3zm0-2.027v2.027h1.3v-2.027h-1.3zm1.3-1.3a1.3 1.3 0 00-1.3 1.3h1.3v-1.3zm1.3 41.851a1.3 1.3 0 00-1.3-1.3v1.3h1.3zm0 2.028v-2.028h-1.3v2.028h1.3zm-1.3 1.3a1.3 1.3 0 001.3-1.3h-1.3v1.3zm-1.3-1.3a1.3 1.3 0 001.3 1.3v-1.3h-1.3zm0-2.028v2.028h1.3v-2.028h-1.3zm1.3-1.3a1.3 1.3 0 00-1.3 1.3h1.3v-1.3zm18.279-18.248a1.3 1.3 0 00-1.3 1.3h1.3v-1.3zm2.031 0h-2.031v1.3h2.031v-1.3zm1.3 1.3a1.3 1.3 0 00-1.3-1.3v1.3h1.3zm-1.3 1.3a1.3 1.3 0 001.3-1.3h-1.3v1.3zm-2.031 0h2.031v-1.3h-2.031v1.3zm-1.3-1.3a1.3 1.3 0 001.3 1.3v-1.3h-1.3zm-39.32-1.3a1.3 1.3 0 00-1.3 1.3h1.3v-1.3zm2.03 0h-2.03v1.3h2.03v-1.3zm1.3 1.3a1.3 1.3 0 00-1.3-1.3v1.3h1.3zm-1.3 1.3a1.3 1.3 0 001.3-1.3h-1.3v1.3zm-2.03 0h2.03v-1.3h-2.03v1.3zm-1.3-1.3a1.3 1.3 0 001.3 1.3v-1.3h-1.3zm50.838-27.4a1.3 1.3 0 00-1.836 0l.918.92.918-.92zm4.31 4.3l-4.31-4.3-.918.92 4.31 4.3.918-.92zm.382.92a1.3 1.3 0 00-.382-.92l-.918.92h1.3zm-.382.92a1.3 1.3 0 00.382-.92h-1.3l.918.92zm-29.45 29.4l29.45-29.4-.918-.92-29.45 29.4.919.92zm-3.073 1.27a4.34 4.34 0 003.074-1.27l-.919-.92a3.04 3.04 0 01-2.155.89v1.3zm-3.072-1.27a4.332 4.332 0 003.072 1.27v-1.3c-.78 0-1.56-.296-2.152-.89l-.92.92zm0 0l.92-.92h-.001l-.92.92zm-13.08-13.057L29.81 42.78l.918-.92-13.079-13.057-.918.92zm-.38-.92c0 .345.137.676.38.92l.92-.92h-1.3zm.38-.92a1.3 1.3 0 00-.38.92h1.3l-.92-.92zm4.309-4.3l-4.308 4.3.918.92 4.308-4.3-.918-.92zm1.837 0a1.3 1.3 0 00-1.837 0l.918.92.919-.92zM33.34 34.03L22.875 23.583l-.919.92 10.466 10.448.918-.92zm25.918-26.79l-26.836 26.79.918.92 26.836-26.79-.918-.92zM33.799 36.33L60.636 9.54l-.919-.92-26.836 26.79.919.92zm-1.836 0a1.3 1.3 0 001.837 0l-.919-.92-.918.92zM21.497 25.882L31.963 36.33l.918-.92-10.466-10.448-.918.92zm-2.47 3.382l3.388-3.382-.918-.92-3.388 3.382.919.92zm12.62 11.677l-12.62-12.597-.918.92L30.73 41.86l.918-.92zm0 0h-.001l-.917.921.918-.92zm1.234.51c-.451 0-.895-.17-1.233-.508l-.92.918c.593.594 1.373.89 2.153.89v-1.3zm1.237-.51c-.341.34-.786.51-1.237.51v1.3c.78 0 1.56-.296 2.155-.89l-.918-.92zm28.989-28.94l-28.99 28.94.919.92 28.99-28.94-.92-.92zm-3.39-2.462l3.39 3.383.918-.92-3.39-3.383-.918.92zM32.881.9C14.78.9.1 15.551.1 33.627h1.3C1.4 16.271 15.495 2.2 32.881 2.2V.9zm24.11 10.552C51.001 4.965 42.415.9 32.88.9v1.3c9.158 0 17.402 3.903 23.154 10.134l.955-.882zm.08.096a1.327 1.327 0 00-.08-.096l-.956.882 1.036-.786zm3.696 4.877l-3.696-4.877-1.036.786 3.696 4.876 1.036-.785zm.072.104a1.284 1.284 0 00-.072-.104l-1.036.785 1.108-.68zm4.823 17.098A32.543 32.543 0 0060.84 16.53l-1.108.681a31.244 31.244 0 014.631 16.417h1.3zm-32.78 32.728c18.1 0 32.78-14.652 32.78-32.728h-1.3c0 17.356-14.095 31.428-31.48 31.428v1.3zM.1 33.627c0 18.076 14.68 32.728 32.781 32.728v-1.3C15.495 65.055 1.4 50.983 1.4 33.627H.1zm2.6 0C2.7 16.991 16.211 3.5 32.881 3.5V2.2C15.495 2.2 1.4 16.27 1.4 33.627h1.3zm30.181 30.128C16.211 63.755 2.7 50.263 2.7 33.627H1.4c0 17.356 14.095 31.428 31.481 31.428v-1.3zm30.181-30.128c0 16.636-13.511 30.128-30.18 30.128v1.3c17.385 0 31.48-14.072 31.48-31.428h-1.3zm-4.422-15.71a29.943 29.943 0 014.422 15.71h1.3a31.243 31.243 0 00-4.614-16.39l-1.108.68zm-3.622-4.773l3.658 4.826 1.036-.785-3.658-4.826-1.036.785zM32.881 3.5c8.77 0 16.663 3.731 22.178 9.693l.954-.883C50.263 6.093 42.028 2.2 32.881 2.2v1.3zm0 3.483c-14.738 0-26.688 11.926-26.688 26.644h1.3c0-13.998 11.366-25.344 25.388-25.344v-1.3zm19.782 8.76c-4.88-5.379-11.938-8.76-19.782-8.76v1.3a25.346 25.346 0 0118.82 8.333l.962-.874zm.1.123a1.3 1.3 0 00-.1-.124l-.962.874 1.061-.75zm3.566 5.044l-3.567-5.044-1.061.75 3.566 5.045 1.062-.75zm.083.135a1.293 1.293 0 00-.083-.135l-1.062.75 1.145-.615zm3.157 12.582c0-4.549-1.142-8.833-3.157-12.582l-1.145.616a25.203 25.203 0 013.002 11.966h1.3zM32.881 60.272c14.738 0 26.688-11.926 26.688-26.645h-1.3c0 13.999-11.366 25.345-25.388 25.345v1.3zM6.193 33.627c0 14.719 11.95 26.645 26.688 26.645v-1.3c-14.022 0-25.388-11.346-25.388-25.345h-1.3zm2.6 0c0-13.278 10.782-24.044 24.088-24.044v-1.3c-14.022 0-25.388 11.346-25.388 25.344h1.3zm24.088 24.045c-13.306 0-24.088-10.766-24.088-24.045h-1.3c0 13.999 11.366 25.345 25.388 25.345v-1.3zM56.97 33.627c0 13.279-10.782 24.045-24.088 24.045v1.3c14.022 0 25.388-11.346 25.388-25.345h-1.3zM54.14 22.31a23.903 23.903 0 012.829 11.317h1.3c0-4.314-1.08-8.375-2.983-11.93l-1.146.613zm-3.478-4.911l3.52 4.98 1.062-.751-3.52-4.98-1.062.751zm-17.78-7.816a24.046 24.046 0 0117.83 7.878l.961-.875a25.346 25.346 0 00-18.792-8.303v1.3z" fill="#62E0D9"/><g clip-rule="evenodd" stroke="#62E0D9" stroke-width="1.3" stroke-linejoin="round"><path d="M55.368 41.484c0 2.48-2.015 4.49-4.498 4.49a4.494 4.494 0 01-4.497-4.49c0-2.48 2.015-4.49 4.497-4.49a4.494 4.494 0 014.498 4.49z"/><path d="M50.87 45.974c-1.898 0-3.612.583-4.839 1.154a3.34 3.34 0 00-1.907 3.033v7.037a2.248 2.248 0 002.249 2.245v8.979a2.247 2.247 0 002.249 2.245h4.497a2.247 2.247 0 002.249-2.245v-8.98a2.248 2.248 0 002.248-2.244V50.16c0-1.293-.733-2.485-1.907-3.033-1.226-.57-2.94-1.154-4.839-1.154z" stroke-linecap="round"/><path d="M68.86 41.484c0 2.48-2.014 4.49-4.498 4.49a4.493 4.493 0 01-4.497-4.49c0-2.48 2.014-4.49 4.497-4.49a4.493 4.493 0 014.498 4.49z"/><path d="M64.362 45.974c-1.898 0-3.612.583-4.839 1.154a3.34 3.34 0 00-1.907 3.033v7.037a2.247 2.247 0 002.249 2.245v8.979a2.248 2.248 0 002.248 2.245h4.498a2.247 2.247 0 002.248-2.245v-8.98a2.247 2.247 0 002.25-2.244V50.16a3.34 3.34 0 00-1.908-3.033c-1.226-.57-2.941-1.154-4.839-1.154z" stroke-linecap="round"/><path d="M82.351 41.484c0 2.48-2.013 4.49-4.497 4.49a4.493 4.493 0 01-4.497-4.49c0-2.48 2.013-4.49 4.497-4.49a4.493 4.493 0 014.497 4.49z"/><path d="M77.854 45.974c-1.898 0-3.612.583-4.839 1.154a3.34 3.34 0 00-1.907 3.033v7.037a2.247 2.247 0 002.249 2.245v8.979a2.248 2.248 0 002.248 2.245h4.498a2.247 2.247 0 002.248-2.245v-8.98a2.247 2.247 0 002.249-2.244V50.16a3.34 3.34 0 00-1.907-3.033c-1.227-.57-2.941-1.154-4.839-1.154z" stroke-linecap="round"/></g></svg>