<svg width="18" height="18" viewBox="0 0 18 18" fill="none" xmlns="http://www.w3.org/2000/svg">
<g id="phone-in-talk">
<path id="Shape" fill-rule="evenodd" clip-rule="evenodd" d="M17 12.5C15.8 12.5 14.6 12.3 13.4 11.9C13.1 11.8 12.7 11.9 12.4 12.1L10.2 14.3C7.4 12.9 5.1 10.5 3.6 7.7L5.8 5.5C6.1 5.2 6.2 4.8 6 4.5C5.7 3.4 5.5 2.2 5.5 1C5.5 0.4 5.1 0 4.5 0H1C0.4 0 0 0.4 0 1C0 10.4 7.6 18 17 18C17.6 18 18 17.6 18 17V13.5C18 12.9 17.6 12.5 17 12.5ZM16 9H18C18 4 14 0 9 0V2C12.9 2 16 5.1 16 9ZM12 9H14C14 6.2 11.8 4 9 4V6C10.7 6 12 7.3 12 9Z" fill="white"/>
</g>
</svg>
